# xmcd CD database file
#
# Track frame offsets:
#	150
#	12675
#	25957
#	38775
#	51622
#	64692
#	78130
#	90895
#	104752
#	119195
#	133440
#	148712
#	163622
#	177387
#	190472
#	203872
#	216100
#	231077
#	245170
#	256632
#	269865
#	283050
#	296347
#
# Disc length: 4118 seconds
#
# Revision: 0
# Processed by: cddbd v1.4PL0 Copyright (c) Steve Scherf et al.
# Submitted via: CDex 1.50Beta7
#
DISCID=71101417
DTITLE=Ted Lewis - Classic Sessions 1928-1929
DYEAR=1929
DGENRE=Jazz
TTITLE0=Start The Band
TTITLE1=Oh, Baby
TTITLE2=Hello Montreal!
TTITLE3=A Good Man Is Hard To Find
TTITLE4=I Ain't Got Nobody
TTITLE5=A Jazz Holiday
TTITLE6=Jungle Blues
TTITLE7=Shim-Me-Sha-Wabble
TTITLE8=Clarinet Marmelade
TTITLE9=My Little Dream Boat
TTITLE10=She's Funny That Way
TTITLE11=Allah's Holiday
TTITLE12=Limehouse Blues
TTITLE13=Glad Rag Doll
TTITLE14=Roses Of Picardy
TTITLE15=Russian Lullaby
TTITLE16=I'm The Medicine Man For Blues
TTITLE17=Maybe - Who Knows
TTITLE18=In The Land Of Jazz
TTITLE19=Lewisada Blues 
TTITLE20=Lewisada Blues 2
TTITLE21=Farewell Blues
TTITLE22=Wabash Blues
EXTD=YEAR: 1929
EXTT0=
EXTT1=
EXTT2=
EXTT3=
EXTT4=
EXTT5=
EXTT6=
EXTT7=
EXTT8=
EXTT9=
EXTT10=
EXTT11=
EXTT12=
EXTT13=
EXTT14=
EXTT15=
EXTT16=
EXTT17=
EXTT18=
EXTT19=
EXTT20=
EXTT21=
EXTT22=
PLAYORDER=
